<?xml version="1.0" encoding="utf-8"?>
<!-- Generator: Adobe Illustrator 24.0.2, SVG Export Plug-In . SVG Version: 6.00 Build 0)  -->
<svg version="1.1" id="Capa_1" xmlns="http://www.w3.org/2000/svg" xmlns:xlink="http://www.w3.org/1999/xlink" x="0px" y="0px"
	 viewBox="0 0 512.6 703.9" style="enable-background:new 0 0 512.6 703.9;" xml:space="preserve">
<style type="text/css">
	.st0{fill:#FFFFFF;}
</style>
<g>
	<path class="st0" d="M255.5,510.3H64.1c-35.2,0-63.8-28.6-63.8-63.8V63.8C0.3,28.6,28.9,0,64.1,0h191.4c11.7,0,21.3,9.5,21.3,21.3
		s-9.5,21.3-21.3,21.3H64.1c-11.7,0-21.3,9.5-21.3,21.3v382.7c0,11.7,9.5,21.3,21.3,21.3h191.4c11.7,0,21.3,9.5,21.3,21.3
		C276.7,500.8,267.2,510.3,255.5,510.3z"/>
	<path class="st0" d="M446.8,276.4H191.7c-11.7,0-21.3-9.5-21.3-21.3c0-11.7,9.5-21.3,21.3-21.3h255.1c11.8,0,21.3,9.5,21.3,21.3
		C468.1,266.9,458.6,276.4,446.8,276.4z"/>
	<path class="st0" d="M361.8,404c-5.5,0-11-2.1-15.1-6.3c-8.3-8.4-8.2-21.8,0.2-30.1l113.9-112.4L346.9,142.7
		c-8.4-8.3-8.4-21.7-0.2-30.1c8.2-8.4,21.7-8.4,30.1-0.2L506,240c4,4,6.3,9.4,6.3,15.1c0,5.7-2.3,11.1-6.3,15.1L376.7,397.9
		C372.6,401.9,367.2,404,361.8,404z"/>
</g>
<g>
	<path class="st0" d="M65.7,669.7c-4.9,1.1-19.2,2.3-27.8,2.3C16.5,672,0,666.2,0,638.4v-86.1c0-1.8,1.5-3.3,3.3-3.3h16.2
		c1.8,0,3.3,1.5,3.3,3.3v86.1c0,10.8,3.3,14.1,12.8,14.1h30.1c1.8,0,3.3,1.5,3.3,3.3v10.5C69,668.5,68.1,669.2,65.7,669.7z"/>
	<path class="st0" d="M116.8,672c-25.7,0-39.1-17.4-39.1-40.8v-13.3c0-23.4,13.4-40.8,39.1-40.8c25.7,0,39.1,17.4,39.1,40.8v13.3
		C155.9,654.6,142.5,672,116.8,672z M134.3,617.9c0-13.4-6.1-22.1-17.5-22.1s-17.5,8.7-17.5,22.1v13.3c0,13.4,6.1,22.1,17.5,22.1
		s17.5-8.7,17.5-22.1V617.9z"/>
	<path class="st0" d="M252.2,593.2l-5.4,2.1c2.6,3.8,4.1,7.4,4.1,13.1v1.1c0,20.5-14.1,29.8-38.8,29.8c-8.7,0-14.6-1.5-17.9-2.8
		c-2,1.3-2.8,2.8-2.8,4.3c0,3.3,1.8,4.6,5.6,5.4l19.3,4.6c22.3,5.2,36.7,8.7,36.7,26.2v1.1c0,16.7-12.3,25.7-40.1,25.7
		c-26.5,0-40.6-10-40.6-27.2v-1.5c0-6.7,3.1-13.3,8.4-18c-4.6-3.4-7.4-9.2-7.4-15.1V642c0-5.1,2.1-10.2,6.6-13.3
		c-4.9-5.1-6.7-11-6.7-19.2v-1.1c0-16.4,10.6-30.1,39-30.1h38.3c2.5,0,4.4,2,4.4,4.4v6.9C254.8,592.1,254.2,592.4,252.2,593.2z
		 M231.4,677.1c0-3.6-2.1-5.7-19.3-9.8l-14.6-3.4c-2.5,3.4-4.1,5.6-4.1,11.5v1.5c0,6.7,4.1,10.8,19.5,10.8c15.7,0,18.5-3.4,18.5-9.3
		V677.1z M229.6,608.8c0-7.9-3.4-13.9-17.5-13.9c-13.9,0-17.7,6.2-17.7,13.9v1.3c0,6.1,2.5,12.9,17.7,12.9
		c13.6,0,17.5-4.7,17.5-12.9V608.8z"/>
	<path class="st0" d="M306.4,672c-25.7,0-39.1-17.4-39.1-40.8v-13.3c0-23.4,13.4-40.8,39.1-40.8c25.7,0,39.1,17.4,39.1,40.8v13.3
		C345.6,654.6,332.2,672,306.4,672z M324,617.9c0-13.4-6.1-22.1-17.5-22.1s-17.5,8.7-17.5,22.1v13.3c0,13.4,6.1,22.1,17.5,22.1
		s17.5-8.7,17.5-22.1V617.9z"/>
	<path class="st0" d="M436.5,670.7h-15.1c-1.8,0-3.3-1.5-3.3-3.3v-3.8c-8.5,5.6-15.2,8.2-25.7,8.2c-8.2,0-15.4-2.1-20.1-6.9
		c-6.1-6.1-8.2-16.2-8.2-29.8v-53.4c0-1.8,1.5-3.4,3.3-3.4h15.1c1.8,0,3.3,1.6,3.3,3.4v53.4c0,8.2,0.7,12.9,3.8,15.7
		c2.3,2,5.1,2.9,10.2,2.9c6.1,0,13.9-4.1,18.5-6.6v-65.5c0-1.8,1.5-3.4,3.3-3.4h15.1c1.8,0,3.3,1.6,3.3,3.4v85.7
		C439.8,669.2,438.3,670.7,436.5,670.7z"/>
	<path class="st0" d="M509.5,670.8c-3.9,0.7-7.5,1.1-11.1,1.1c-18.5,0-26-4.1-26-26v-51.4l-15.4-2.3c-1.8-0.3-3.3-1.5-3.3-3.3v-7.4
		c0-1.8,1.5-3.3,3.3-3.3h15.4v-13.4c0-1.8,1.5-2.9,3.3-3.3l15.2-2.6c0.2,0,0.5,0,0.7,0c1.5,0,2.6,0.8,2.6,2.5v16.9h14.7
		c1.8,0,3.3,1.5,3.3,3.3v9.7c0,1.8-1.5,3.3-3.3,3.3h-14.7v51.4c0,8.2,0.5,9.2,6.4,9.2h8.7c2.1,0,3.4,0.8,3.4,2.5v10.3
		C512.6,669.5,511.7,670.5,509.5,670.8z"/>
</g>
</svg>
